<svg viewBox="0 0 90 90" xmlns="http://www.w3.org/2000/svg"><g fill="none" fill-rule="evenodd"><path fill="#FFF" d="M0 0h90v90H0z"/><path d="M74.083 57.389H71.4a2.77 2.77 0 0 1-2.05-.903l-7.552-8.319-2.46 2.71 7.28 8.016A6.467 6.467 0 0 0 71.4 61h2.683a.91.91 0 0 0 .917-.903v-1.805a.91.91 0 0 0-.917-.903m-45.88-9.222-7.554 8.319a2.771 2.771 0 0 1-2.05.903h-2.682a.91.91 0 0 0-.917.903v1.805c0 .499.41.903.917.903H18.6a6.465 6.465 0 0 0 4.782-2.107l7.28-8.017-2.46-2.709ZM45 57.624a5.543 5.543 0 0 1-4.099-1.805L20.65 33.514a2.771 2.771 0 0 0-2.05-.903h-2.682a.91.91 0 0 1-.917-.903v-1.805a.91.91 0 0 1 .917-.903H18.6c1.823 0 3.566.768 4.782 2.107l20.213 22.26c.339.375.81.622 1.32.644a1.827 1.827 0 0 0 1.451-.6l20.252-22.304A6.466 6.466 0 0 1 71.4 29h2.683a.91.91 0 0 1 .917.903v1.805a.91.91 0 0 1-.917.903H71.4a2.77 2.77 0 0 0-2.05.903L49.1 55.819a5.542 5.542 0 0 1-4.1 1.805Z" fill="#292E37" fill-rule="nonzero"/></g></svg>